<mxfile host="app.diagrams.net" modified="2022-03-02T09:45:15.506Z" agent="5.0 (Windows NT 10.0; Win64; x64) AppleWebKit/537.36 (KHTML, like Gecko) Chrome/98.0.4758.82 Safari/537.36" etag="64RkPflznjJ9H7zqMgsA" version="16.6.4" type="github">
  <diagram id="Ig7wvTALJ7_6tXKlKnn7" name="Page-1">
    <mxGraphModel dx="2480" dy="932" grid="1" gridSize="10" guides="1" tooltips="1" connect="1" arrows="1" fold="1" page="1" pageScale="1" pageWidth="827" pageHeight="1169" math="0" shadow="0">
      <root>
        <mxCell id="0" />
        <mxCell id="1" parent="0" />
        <mxCell id="LpRkohUKstNKUYAu3ayF-50" style="edgeStyle=orthogonalEdgeStyle;rounded=0;orthogonalLoop=1;jettySize=auto;html=1;exitX=0.5;exitY=1;exitDx=0;exitDy=0;entryX=0.392;entryY=0;entryDx=0;entryDy=0;entryPerimeter=0;fontSize=10;" edge="1" parent="1" source="LpRkohUKstNKUYAu3ayF-1" target="LpRkohUKstNKUYAu3ayF-6">
          <mxGeometry relative="1" as="geometry" />
        </mxCell>
        <mxCell id="LpRkohUKstNKUYAu3ayF-1" value="&lt;font style=&quot;font-size: 10px&quot;&gt;适用于测试几乎所有OTT终端设备，包括魔盒泰坦、魔屏泰坦、一体机泰坦、一体机影视、以及第三方设备上的酷喵App&lt;/font&gt;" style="rounded=0;whiteSpace=wrap;html=1;" vertex="1" parent="1">
          <mxGeometry x="30" y="50" width="790" height="50" as="geometry" />
        </mxCell>
        <mxCell id="LpRkohUKstNKUYAu3ayF-3" value="" style="endArrow=none;dashed=1;html=1;dashPattern=1 3;strokeWidth=2;rounded=0;" edge="1" parent="1">
          <mxGeometry width="50" height="50" relative="1" as="geometry">
            <mxPoint x="-20" y="140" as="sourcePoint" />
            <mxPoint x="860" y="140" as="targetPoint" />
            <Array as="points" />
          </mxGeometry>
        </mxCell>
        <mxCell id="LpRkohUKstNKUYAu3ayF-4" value="打开泰坦、影视和酷喵输入shell命令" style="text;html=1;align=center;verticalAlign=middle;resizable=0;points=[];autosize=1;strokeColor=none;fillColor=none;" vertex="1" parent="1">
          <mxGeometry x="440" y="110" width="210" height="20" as="geometry" />
        </mxCell>
        <mxCell id="LpRkohUKstNKUYAu3ayF-40" style="edgeStyle=orthogonalEdgeStyle;rounded=0;orthogonalLoop=1;jettySize=auto;html=1;exitX=0;exitY=0.75;exitDx=0;exitDy=0;entryX=0;entryY=0.25;entryDx=0;entryDy=0;fontSize=10;" edge="1" parent="1" source="LpRkohUKstNKUYAu3ayF-5" target="LpRkohUKstNKUYAu3ayF-33">
          <mxGeometry relative="1" as="geometry" />
        </mxCell>
        <mxCell id="LpRkohUKstNKUYAu3ayF-5" value="View&lt;br&gt;表现层" style="rounded=0;whiteSpace=wrap;html=1;" vertex="1" parent="1">
          <mxGeometry x="50" y="170" width="110" height="72.5" as="geometry" />
        </mxCell>
        <mxCell id="LpRkohUKstNKUYAu3ayF-26" style="edgeStyle=orthogonalEdgeStyle;rounded=0;orthogonalLoop=1;jettySize=auto;html=1;exitX=0.25;exitY=1;exitDx=0;exitDy=0;entryX=0.25;entryY=0;entryDx=0;entryDy=0;fontSize=10;" edge="1" parent="1" source="LpRkohUKstNKUYAu3ayF-6" target="LpRkohUKstNKUYAu3ayF-15">
          <mxGeometry relative="1" as="geometry" />
        </mxCell>
        <mxCell id="LpRkohUKstNKUYAu3ayF-6" value="" style="rounded=0;whiteSpace=wrap;html=1;" vertex="1" parent="1">
          <mxGeometry x="170" y="170" width="650" height="70" as="geometry" />
        </mxCell>
        <mxCell id="LpRkohUKstNKUYAu3ayF-7" value="Choice 页面&lt;br&gt;选择需要执行的Case" style="rounded=0;whiteSpace=wrap;html=1;" vertex="1" parent="1">
          <mxGeometry x="180" y="181.25" width="140" height="50" as="geometry" />
        </mxCell>
        <mxCell id="LpRkohUKstNKUYAu3ayF-10" value="Result 页面&lt;br&gt;展示测试结果" style="rounded=0;whiteSpace=wrap;html=1;" vertex="1" parent="1">
          <mxGeometry x="330" y="180" width="100" height="50" as="geometry" />
        </mxCell>
        <mxCell id="LpRkohUKstNKUYAu3ayF-11" value="Dialog 1&amp;nbsp;&lt;br&gt;收集测试人员信息" style="rounded=0;whiteSpace=wrap;html=1;" vertex="1" parent="1">
          <mxGeometry x="440" y="180" width="110" height="50" as="geometry" />
        </mxCell>
        <mxCell id="LpRkohUKstNKUYAu3ayF-12" value="&lt;font style=&quot;font-size: 12px&quot;&gt;Dialog 2&lt;br&gt;选择继续执行未完成的测试&lt;br&gt;或者重新选择测试Case&lt;/font&gt;" style="rounded=0;whiteSpace=wrap;html=1;" vertex="1" parent="1">
          <mxGeometry x="560" y="180" width="160" height="50" as="geometry" />
        </mxCell>
        <mxCell id="LpRkohUKstNKUYAu3ayF-13" value="FloatWindow&lt;br&gt;悬浮窗" style="rounded=0;whiteSpace=wrap;html=1;" vertex="1" parent="1">
          <mxGeometry x="730" y="180" width="80" height="50" as="geometry" />
        </mxCell>
        <mxCell id="LpRkohUKstNKUYAu3ayF-14" value="Execution&lt;br&gt;执行层" style="rounded=0;whiteSpace=wrap;html=1;fontSize=10;" vertex="1" parent="1">
          <mxGeometry x="50" y="300" width="110" height="130" as="geometry" />
        </mxCell>
        <mxCell id="LpRkohUKstNKUYAu3ayF-15" value="" style="rounded=0;whiteSpace=wrap;html=1;fontSize=10;" vertex="1" parent="1">
          <mxGeometry x="170" y="300" width="650" height="130" as="geometry" />
        </mxCell>
        <mxCell id="LpRkohUKstNKUYAu3ayF-17" value="API和Util类&lt;br&gt;获取设备基本信息，同时通过反射调用页面的API和&lt;br&gt;柳叶刀的方法，实现登录账号、播放控制等功能" style="rounded=0;whiteSpace=wrap;html=1;fontSize=10;" vertex="1" parent="1">
          <mxGeometry x="180" y="310" width="290" height="50" as="geometry" />
        </mxCell>
        <mxCell id="LpRkohUKstNKUYAu3ayF-23" value="Page 类&lt;br&gt;在DeleailPage、PlaylistPage、LivePage等&lt;br&gt;不同页面适配对应的API" style="rounded=0;whiteSpace=wrap;html=1;fontSize=10;" vertex="1" parent="1">
          <mxGeometry x="480" y="310" width="240" height="50" as="geometry" />
        </mxCell>
        <mxCell id="LpRkohUKstNKUYAu3ayF-24" value="Test类&lt;br&gt;所有测试的具体步骤" style="rounded=0;whiteSpace=wrap;html=1;fontSize=10;" vertex="1" parent="1">
          <mxGeometry x="725" y="310" width="90" height="50" as="geometry" />
        </mxCell>
        <mxCell id="LpRkohUKstNKUYAu3ayF-27" value="开启新的 线程执行测试" style="text;html=1;align=center;verticalAlign=middle;resizable=0;points=[];autosize=1;strokeColor=none;fillColor=none;fontSize=10;" vertex="1" parent="1">
          <mxGeometry x="190" y="260" width="140" height="20" as="geometry" />
        </mxCell>
        <mxCell id="LpRkohUKstNKUYAu3ayF-28" value="" style="endArrow=classic;html=1;rounded=0;fontSize=10;entryX=0.936;entryY=1.039;entryDx=0;entryDy=0;entryPerimeter=0;" edge="1" parent="1" target="LpRkohUKstNKUYAu3ayF-6">
          <mxGeometry width="50" height="50" relative="1" as="geometry">
            <mxPoint x="780" y="300" as="sourcePoint" />
            <mxPoint x="830" y="250" as="targetPoint" />
            <Array as="points" />
          </mxGeometry>
        </mxCell>
        <mxCell id="LpRkohUKstNKUYAu3ayF-29" value="Log系统&lt;br&gt;记录和打印测试过程中的关键信息，如操作步骤&lt;br&gt;Shell命令、Activity信息、API调用、Assert结果等" style="rounded=0;whiteSpace=wrap;html=1;fontSize=10;" vertex="1" parent="1">
          <mxGeometry x="180" y="370" width="290" height="50" as="geometry" />
        </mxCell>
        <mxCell id="LpRkohUKstNKUYAu3ayF-30" value="实时更新FloatWindow的内容，包括&lt;br&gt;设备信息、当前的Case和Progress" style="text;html=1;align=center;verticalAlign=middle;resizable=0;points=[];autosize=1;strokeColor=none;fillColor=none;fontSize=10;" vertex="1" parent="1">
          <mxGeometry x="570" y="255" width="200" height="30" as="geometry" />
        </mxCell>
        <mxCell id="LpRkohUKstNKUYAu3ayF-31" value="Entry类&lt;br&gt;包括Case、Assert、&lt;br&gt;Log和Report等" style="rounded=0;whiteSpace=wrap;html=1;fontSize=10;" vertex="1" parent="1">
          <mxGeometry x="480" y="370" width="130" height="50" as="geometry" />
        </mxCell>
        <mxCell id="LpRkohUKstNKUYAu3ayF-32" value="Others&lt;br&gt;包括Annotation、Constants和Enums" style="rounded=0;whiteSpace=wrap;html=1;fontSize=10;" vertex="1" parent="1">
          <mxGeometry x="620" y="370" width="190" height="50" as="geometry" />
        </mxCell>
        <mxCell id="LpRkohUKstNKUYAu3ayF-41" style="edgeStyle=orthogonalEdgeStyle;rounded=0;orthogonalLoop=1;jettySize=auto;html=1;exitX=0;exitY=0.75;exitDx=0;exitDy=0;fontSize=10;entryX=0;entryY=0.25;entryDx=0;entryDy=0;" edge="1" parent="1" source="LpRkohUKstNKUYAu3ayF-33" target="LpRkohUKstNKUYAu3ayF-5">
          <mxGeometry relative="1" as="geometry">
            <mxPoint x="20" y="190" as="targetPoint" />
            <Array as="points">
              <mxPoint x="10" y="623" />
              <mxPoint x="10" y="188" />
            </Array>
          </mxGeometry>
        </mxCell>
        <mxCell id="LpRkohUKstNKUYAu3ayF-33" value="ProcessingReport&lt;br&gt;报告处理层" style="rounded=0;whiteSpace=wrap;html=1;fontSize=10;" vertex="1" parent="1">
          <mxGeometry x="50" y="510" width="110" height="150" as="geometry" />
        </mxCell>
        <mxCell id="LpRkohUKstNKUYAu3ayF-59" style="edgeStyle=orthogonalEdgeStyle;rounded=0;orthogonalLoop=1;jettySize=auto;html=1;exitX=0.5;exitY=1;exitDx=0;exitDy=0;entryX=0.5;entryY=0;entryDx=0;entryDy=0;fontSize=10;" edge="1" parent="1" source="LpRkohUKstNKUYAu3ayF-34" target="LpRkohUKstNKUYAu3ayF-53">
          <mxGeometry relative="1" as="geometry">
            <Array as="points">
              <mxPoint x="435" y="660" />
            </Array>
          </mxGeometry>
        </mxCell>
        <mxCell id="LpRkohUKstNKUYAu3ayF-34" value="仅在所选的Case全部执行完成后&amp;nbsp; &amp;nbsp; &amp;nbsp; &amp;nbsp; &amp;nbsp; &amp;nbsp; &amp;nbsp; &amp;nbsp; &amp;nbsp; &amp;nbsp; &amp;nbsp; &amp;nbsp; &amp;nbsp; &amp;nbsp; &amp;nbsp; &amp;nbsp; &amp;nbsp; &amp;nbsp; &amp;nbsp; &amp;nbsp; &amp;nbsp; &amp;nbsp; &amp;nbsp; &amp;nbsp; &amp;nbsp; &amp;nbsp; &amp;nbsp; &amp;nbsp; &amp;nbsp; &amp;nbsp; &amp;nbsp; &amp;nbsp; &amp;nbsp; &amp;nbsp; &amp;nbsp; &amp;nbsp; &amp;nbsp; &amp;nbsp; &amp;nbsp; &amp;nbsp; &amp;nbsp; &amp;nbsp; &amp;nbsp; &amp;nbsp; &amp;nbsp; &amp;nbsp; &amp;nbsp; &amp;nbsp; &amp;nbsp; &amp;nbsp; &amp;nbsp; &amp;nbsp; &amp;nbsp; &amp;nbsp; &amp;nbsp; &amp;nbsp; &amp;nbsp; &amp;nbsp; &amp;nbsp; &amp;nbsp; &amp;nbsp;&amp;nbsp;" style="rounded=0;whiteSpace=wrap;html=1;fontSize=10;" vertex="1" parent="1">
          <mxGeometry x="180" y="510" width="640" height="150" as="geometry" />
        </mxCell>
        <mxCell id="LpRkohUKstNKUYAu3ayF-38" style="edgeStyle=orthogonalEdgeStyle;rounded=0;orthogonalLoop=1;jettySize=auto;html=1;exitX=0;exitY=0.5;exitDx=0;exitDy=0;fontSize=10;entryX=0;entryY=0.5;entryDx=0;entryDy=0;" edge="1" parent="1" source="LpRkohUKstNKUYAu3ayF-35" target="LpRkohUKstNKUYAu3ayF-36">
          <mxGeometry relative="1" as="geometry">
            <Array as="points">
              <mxPoint x="200" y="545" />
              <mxPoint x="200" y="625" />
            </Array>
          </mxGeometry>
        </mxCell>
        <mxCell id="LpRkohUKstNKUYAu3ayF-35" value="Local&lt;br&gt;将最新的Report保存到Temporary Report&lt;br&gt;测试以外中断后，可以通过Temporary Report重新加载数据，继续执行未完成的测试" style="rounded=0;whiteSpace=wrap;html=1;fontSize=10;" vertex="1" parent="1">
          <mxGeometry x="280" y="520" width="520" height="50" as="geometry" />
        </mxCell>
        <mxCell id="LpRkohUKstNKUYAu3ayF-36" value="Remote&lt;br&gt;封装最终的TestReport 并上传到Abird平台，同时删除本地的Temporary Report" style="rounded=0;whiteSpace=wrap;html=1;fontSize=10;" vertex="1" parent="1">
          <mxGeometry x="280" y="600" width="520" height="50" as="geometry" />
        </mxCell>
        <mxCell id="LpRkohUKstNKUYAu3ayF-42" value="" style="endArrow=classic;html=1;rounded=0;fontSize=10;entryX=0.5;entryY=0;entryDx=0;entryDy=0;" edge="1" parent="1" target="LpRkohUKstNKUYAu3ayF-34">
          <mxGeometry width="50" height="50" relative="1" as="geometry">
            <mxPoint x="500" y="430" as="sourcePoint" />
            <mxPoint x="495" y="500" as="targetPoint" />
          </mxGeometry>
        </mxCell>
        <mxCell id="LpRkohUKstNKUYAu3ayF-43" value="单个Case完成后" style="text;html=1;align=center;verticalAlign=middle;resizable=0;points=[];autosize=1;strokeColor=none;fillColor=none;fontSize=10;" vertex="1" parent="1">
          <mxGeometry x="390" y="460" width="100" height="20" as="geometry" />
        </mxCell>
        <mxCell id="LpRkohUKstNKUYAu3ayF-44" value="首次执行时，Initialize Temporary Report&amp;nbsp;" style="text;html=1;align=center;verticalAlign=middle;resizable=0;points=[];autosize=1;strokeColor=none;fillColor=none;fontSize=10;" vertex="1" parent="1">
          <mxGeometry x="80" y="470" width="230" height="20" as="geometry" />
        </mxCell>
        <mxCell id="LpRkohUKstNKUYAu3ayF-45" value="测试意外中断后&lt;br&gt;可重新加载数据" style="text;html=1;align=center;verticalAlign=middle;resizable=0;points=[];autosize=1;strokeColor=none;fillColor=none;fontSize=10;" vertex="1" parent="1">
          <mxGeometry x="-60" y="640" width="100" height="30" as="geometry" />
        </mxCell>
        <mxCell id="LpRkohUKstNKUYAu3ayF-48" value="" style="endArrow=none;dashed=1;html=1;dashPattern=1 3;strokeWidth=2;rounded=0;fontSize=10;" edge="1" parent="1">
          <mxGeometry width="50" height="50" relative="1" as="geometry">
            <mxPoint x="-30" y="700" as="sourcePoint" />
            <mxPoint x="860" y="700" as="targetPoint" />
          </mxGeometry>
        </mxCell>
        <mxCell id="LpRkohUKstNKUYAu3ayF-49" value="" style="endArrow=classic;html=1;rounded=0;fontSize=10;" edge="1" parent="1">
          <mxGeometry width="50" height="50" relative="1" as="geometry">
            <mxPoint x="480" y="450" as="sourcePoint" />
            <mxPoint x="530" y="400" as="targetPoint" />
          </mxGeometry>
        </mxCell>
        <mxCell id="LpRkohUKstNKUYAu3ayF-51" value="" style="endArrow=classic;html=1;rounded=0;fontSize=10;" edge="1" parent="1">
          <mxGeometry width="50" height="50" relative="1" as="geometry">
            <mxPoint x="480" y="450" as="sourcePoint" />
            <mxPoint x="530" y="400" as="targetPoint" />
          </mxGeometry>
        </mxCell>
        <mxCell id="LpRkohUKstNKUYAu3ayF-53" value="Abird平台上显示测试结果" style="rounded=0;whiteSpace=wrap;html=1;fontSize=10;" vertex="1" parent="1">
          <mxGeometry x="50" y="750" width="770" height="60" as="geometry" />
        </mxCell>
        <mxCell id="LpRkohUKstNKUYAu3ayF-54" value="" style="endArrow=classic;html=1;rounded=0;fontSize=10;" edge="1" parent="1">
          <mxGeometry width="50" height="50" relative="1" as="geometry">
            <mxPoint x="480" y="450" as="sourcePoint" />
            <mxPoint x="530" y="400" as="targetPoint" />
          </mxGeometry>
        </mxCell>
        <mxCell id="LpRkohUKstNKUYAu3ayF-55" value="" style="endArrow=classic;html=1;rounded=0;fontSize=10;" edge="1" parent="1">
          <mxGeometry width="50" height="50" relative="1" as="geometry">
            <mxPoint x="480" y="450" as="sourcePoint" />
            <mxPoint x="530" y="400" as="targetPoint" />
          </mxGeometry>
        </mxCell>
        <mxCell id="LpRkohUKstNKUYAu3ayF-56" value="" style="endArrow=classic;html=1;rounded=0;fontSize=10;" edge="1" parent="1">
          <mxGeometry width="50" height="50" relative="1" as="geometry">
            <mxPoint x="480" y="450" as="sourcePoint" />
            <mxPoint x="530" y="400" as="targetPoint" />
          </mxGeometry>
        </mxCell>
        <mxCell id="LpRkohUKstNKUYAu3ayF-57" value="" style="endArrow=classic;html=1;rounded=0;fontSize=10;" edge="1" parent="1">
          <mxGeometry width="50" height="50" relative="1" as="geometry">
            <mxPoint x="480" y="450" as="sourcePoint" />
            <mxPoint x="530" y="400" as="targetPoint" />
          </mxGeometry>
        </mxCell>
        <mxCell id="LpRkohUKstNKUYAu3ayF-58" value="" style="endArrow=classic;html=1;rounded=0;fontSize=10;" edge="1" parent="1">
          <mxGeometry width="50" height="50" relative="1" as="geometry">
            <mxPoint x="480" y="450" as="sourcePoint" />
            <mxPoint x="530" y="400" as="targetPoint" />
          </mxGeometry>
        </mxCell>
      </root>
    </mxGraphModel>
  </diagram>
</mxfile>
